solid OpenSCAD_Model
  facet normal 0 0 -1
    outer loop
      vertex 26 -26 0
      vertex 23 -23 0
      vertex 26 26 0
    endloop
  endfacet
  facet normal 0 0 -1
    outer loop
      vertex 26 -26 0
      vertex -23 -23 0
      vertex 23 -23 0
    endloop
  endfacet
  facet normal -0 0 -1
    outer loop
      vertex -23 -23 0
      vertex -26 -26 0
      vertex -23 23 0
    endloop
  endfacet
  facet normal 0 0 -1
    outer loop
      vertex -26 -26 0
      vertex -23 -23 0
      vertex 26 -26 0
    endloop
  endfacet
  facet normal 0 0 -1
    outer loop
      vertex 23 23 0
      vertex 26 26 0
      vertex 23 -23 0
    endloop
  endfacet
  facet normal 0 0 -1
    outer loop
      vertex -23 23 0
      vertex 26 26 0
      vertex 23 23 0
    endloop
  endfacet
  facet normal 0 0 -1
    outer loop
      vertex -23 23 0
      vertex -26 26 0
      vertex 26 26 0
    endloop
  endfacet
  facet normal 0 0 -1
    outer loop
      vertex -26 26 0
      vertex -23 23 0
      vertex -26 -26 0
    endloop
  endfacet
  facet normal -0.999298 0 0.0374737
    outer loop
      vertex -26 26 0
      vertex -24.125 -24.125 50
      vertex -24.125 24.125 50
    endloop
  endfacet
  facet normal -0.999298 0 0.0374737
    outer loop
      vertex -24.125 -24.125 50
      vertex -26 26 0
      vertex -26 -26 0
    endloop
  endfacet
  facet normal 0.999298 -0 0.0374737
    outer loop
      vertex 24.125 -24.125 50
      vertex 26 26 0
      vertex 24.125 24.125 50
    endloop
  endfacet
  facet normal 0.999298 0 0.0374737
    outer loop
      vertex 26 26 0
      vertex 24.125 -24.125 50
      vertex 26 -26 0
    endloop
  endfacet
  facet normal 0 0.999298 0.0374737
    outer loop
      vertex 26 26 0
      vertex -24.125 24.125 50
      vertex 24.125 24.125 50
    endloop
  endfacet
  facet normal 0 0.999298 0.0374737
    outer loop
      vertex -24.125 24.125 50
      vertex 26 26 0
      vertex -26 26 0
    endloop
  endfacet
  facet normal 0 -0.999298 0.0374737
    outer loop
      vertex -26 -26 0
      vertex 24.125 -24.125 50
      vertex -24.125 -24.125 50
    endloop
  endfacet
  facet normal 0 -0.999298 0.0374737
    outer loop
      vertex 24.125 -24.125 50
      vertex -26 -26 0
      vertex 26 -26 0
    endloop
  endfacet
  facet normal 0.999298 0 -0.0374737
    outer loop
      vertex -21.125 -21.125 50
      vertex -23 23 0
      vertex -21.125 21.125 50
    endloop
  endfacet
  facet normal 0.999298 0 -0.0374737
    outer loop
      vertex -23 23 0
      vertex -21.125 -21.125 50
      vertex -23 -23 0
    endloop
  endfacet
  facet normal -0.999298 0 -0.0374737
    outer loop
      vertex 23 23 0
      vertex 21.125 -21.125 50
      vertex 21.125 21.125 50
    endloop
  endfacet
  facet normal -0.999298 0 -0.0374737
    outer loop
      vertex 21.125 -21.125 50
      vertex 23 23 0
      vertex 23 -23 0
    endloop
  endfacet
  facet normal 0 -0.999298 -0.0374737
    outer loop
      vertex -23 23 0
      vertex 21.125 21.125 50
      vertex -21.125 21.125 50
    endloop
  endfacet
  facet normal 0 -0.999298 -0.0374737
    outer loop
      vertex 21.125 21.125 50
      vertex -23 23 0
      vertex 23 23 0
    endloop
  endfacet
  facet normal 0 0.999298 -0.0374737
    outer loop
      vertex 23 -23 0
      vertex -21.125 -21.125 50
      vertex 21.125 -21.125 50
    endloop
  endfacet
  facet normal 0 0.999298 -0.0374737
    outer loop
      vertex -21.125 -21.125 50
      vertex 23 -23 0
      vertex -23 -23 0
    endloop
  endfacet
  facet normal 0 0 1
    outer loop
      vertex 24.125 24.125 50
      vertex 21.125 21.125 50
      vertex 24.125 -24.125 50
    endloop
  endfacet
  facet normal 0 0 1
    outer loop
      vertex 24.125 24.125 50
      vertex -21.125 21.125 50
      vertex 21.125 21.125 50
    endloop
  endfacet
  facet normal 0 0 1
    outer loop
      vertex -21.125 21.125 50
      vertex -24.125 24.125 50
      vertex -21.125 -21.125 50
    endloop
  endfacet
  facet normal -0 0 1
    outer loop
      vertex -24.125 24.125 50
      vertex -21.125 21.125 50
      vertex 24.125 24.125 50
    endloop
  endfacet
  facet normal -0 0 1
    outer loop
      vertex 21.125 -21.125 50
      vertex 24.125 -24.125 50
      vertex 21.125 21.125 50
    endloop
  endfacet
  facet normal -0 0 1
    outer loop
      vertex -21.125 -21.125 50
      vertex 24.125 -24.125 50
      vertex 21.125 -21.125 50
    endloop
  endfacet
  facet normal 0 0 1
    outer loop
      vertex -21.125 -21.125 50
      vertex -24.125 -24.125 50
      vertex 24.125 -24.125 50
    endloop
  endfacet
  facet normal 0 0 1
    outer loop
      vertex -24.125 -24.125 50
      vertex -21.125 -21.125 50
      vertex -24.125 24.125 50
    endloop
  endfacet
endsolid OpenSCAD_Model
